<?xml version="1.0" standalone="no"?>
<!DOCTYPE svg PUBLIC "-//W3C//DTD SVG 20010904//EN"
 "http://www.w3.org/TR/2001/REC-SVG-20010904/DTD/svg10.dtd">
<svg version="1.0" xmlns="http://www.w3.org/2000/svg"
 width="32.000000pt" height="32.000000pt" viewBox="0 0 32.000000 32.000000"
 preserveAspectRatio="xMidYMid meet">

<g transform="translate(0.000000,32.000000) scale(0.100000,-0.100000)"
fill="#000000" stroke="none">
<path d="M0 160 l0 -160 160 0 160 0 0 160 0 160 -160 0 -160 0 0 -160z m196
85 c9 -8 24 -15 34 -15 10 0 22 -10 26 -22 5 -16 0 -26 -20 -41 -21 -15 -24
-22 -16 -37 6 -11 16 -17 24 -14 17 6 27 -17 19 -45 -3 -12 -13 -21 -25 -21
-12 0 -17 4 -12 12 5 7 3 8 -7 2 -8 -4 -44 -10 -81 -11 -53 -2 -68 0 -68 11 0
8 -6 16 -12 19 -10 3 -10 7 1 20 20 25 31 21 32 -10 1 -22 3 -20 9 12 7 33 5
43 -11 57 -10 9 -19 28 -19 41 0 21 6 26 28 29 15 2 26 8 25 16 -4 17 55 15
73 -3z"/>
<path d="M153 213 c9 -2 23 -2 30 0 6 3 -1 5 -18 5 -16 0 -22 -2 -12 -5z"/>
</g>
</svg>
